<mxfile host="app.diagrams.net" agent="Mozilla/5.0 (X11; Linux x86_64; rv:135.0) Gecko/20100101 Firefox/135.0" version="27.1.1">
  <diagram name="Page-1" id="yMtV_FGP1_8YetEe_EmV">
    <mxGraphModel dx="475" dy="455" grid="1" gridSize="10" guides="1" tooltips="1" connect="1" arrows="1" fold="1" page="1" pageScale="1" pageWidth="850" pageHeight="1100" math="0" shadow="0">
      <root>
        <mxCell id="0" />
        <mxCell id="1" parent="0" />
        <mxCell id="j541j2Er6DIHefNxkkkJ-1" style="edgeStyle=orthogonalEdgeStyle;rounded=0;orthogonalLoop=1;jettySize=auto;html=1;exitX=1;exitY=0.75;exitDx=0;exitDy=0;entryX=0;entryY=0;entryDx=0;entryDy=0;" edge="1" parent="1" source="LHb7cjcx7eBN_5A-D2uy-1" target="LHb7cjcx7eBN_5A-D2uy-7">
          <mxGeometry relative="1" as="geometry">
            <Array as="points">
              <mxPoint x="320" y="185" />
              <mxPoint x="320" y="260" />
            </Array>
          </mxGeometry>
        </mxCell>
        <mxCell id="j541j2Er6DIHefNxkkkJ-2" value="&lt;div&gt;loop&lt;/div&gt;&amp;nbsp;one buffer" style="edgeLabel;html=1;align=center;verticalAlign=middle;resizable=0;points=[];" vertex="1" connectable="0" parent="j541j2Er6DIHefNxkkkJ-1">
          <mxGeometry x="-0.0857" relative="1" as="geometry">
            <mxPoint as="offset" />
          </mxGeometry>
        </mxCell>
        <mxCell id="j541j2Er6DIHefNxkkkJ-3" style="edgeStyle=orthogonalEdgeStyle;rounded=0;orthogonalLoop=1;jettySize=auto;html=1;exitX=0;exitY=0.75;exitDx=0;exitDy=0;entryX=0;entryY=0.5;entryDx=0;entryDy=0;" edge="1" parent="1" source="LHb7cjcx7eBN_5A-D2uy-1" target="LHb7cjcx7eBN_5A-D2uy-2">
          <mxGeometry relative="1" as="geometry">
            <Array as="points">
              <mxPoint x="120" y="185" />
              <mxPoint x="120" y="290" />
            </Array>
          </mxGeometry>
        </mxCell>
        <mxCell id="j541j2Er6DIHefNxkkkJ-4" value="&lt;div&gt;wrapping&lt;/div&gt;&lt;div&gt;mode&lt;/div&gt;" style="edgeLabel;html=1;align=center;verticalAlign=middle;resizable=0;points=[];" vertex="1" connectable="0" parent="j541j2Er6DIHefNxkkkJ-3">
          <mxGeometry x="0.2333" relative="1" as="geometry">
            <mxPoint as="offset" />
          </mxGeometry>
        </mxCell>
        <mxCell id="LHb7cjcx7eBN_5A-D2uy-1" value="&lt;div&gt;SEQ&lt;/div&gt;&lt;div&gt;(State Machine)&lt;/div&gt;" style="rounded=1;whiteSpace=wrap;html=1;" parent="1" vertex="1">
          <mxGeometry x="150" y="140" width="120" height="60" as="geometry" />
        </mxCell>
        <mxCell id="LHb7cjcx7eBN_5A-D2uy-2" value="&lt;div&gt;RING TABLE&lt;/div&gt;&lt;div&gt;(FIFO)&lt;/div&gt;" style="rounded=1;whiteSpace=wrap;html=1;" parent="1" vertex="1">
          <mxGeometry x="150" y="260" width="120" height="60" as="geometry" />
        </mxCell>
        <mxCell id="LHb7cjcx7eBN_5A-D2uy-3" value="" style="endArrow=classic;html=1;rounded=0;exitX=0.25;exitY=0;exitDx=0;exitDy=0;entryX=0.25;entryY=1;entryDx=0;entryDy=0;" parent="1" edge="1">
          <mxGeometry width="50" height="50" relative="1" as="geometry">
            <mxPoint x="200" y="260" as="sourcePoint" />
            <mxPoint x="200" y="200" as="targetPoint" />
          </mxGeometry>
        </mxCell>
        <mxCell id="LHb7cjcx7eBN_5A-D2uy-4" value="frame" style="edgeLabel;html=1;align=center;verticalAlign=middle;resizable=0;points=[];" parent="LHb7cjcx7eBN_5A-D2uy-3" vertex="1" connectable="0">
          <mxGeometry x="0.2333" y="-5" relative="1" as="geometry">
            <mxPoint as="offset" />
          </mxGeometry>
        </mxCell>
        <mxCell id="LHb7cjcx7eBN_5A-D2uy-5" value="" style="endArrow=classic;html=1;rounded=0;exitX=0.75;exitY=1;exitDx=0;exitDy=0;entryX=0.75;entryY=0;entryDx=0;entryDy=0;" parent="1" source="LHb7cjcx7eBN_5A-D2uy-1" target="LHb7cjcx7eBN_5A-D2uy-2" edge="1">
          <mxGeometry width="50" height="50" relative="1" as="geometry">
            <mxPoint x="10" y="470" as="sourcePoint" />
            <mxPoint x="60" y="420" as="targetPoint" />
          </mxGeometry>
        </mxCell>
        <mxCell id="LHb7cjcx7eBN_5A-D2uy-6" value="load_next" style="edgeLabel;html=1;align=center;verticalAlign=middle;resizable=0;points=[];" parent="LHb7cjcx7eBN_5A-D2uy-5" vertex="1" connectable="0">
          <mxGeometry x="-0.0333" y="5" relative="1" as="geometry">
            <mxPoint as="offset" />
          </mxGeometry>
        </mxCell>
        <mxCell id="LHb7cjcx7eBN_5A-D2uy-7" value="Table reader client" style="rounded=1;whiteSpace=wrap;html=1;" parent="1" vertex="1">
          <mxGeometry x="370" y="260" width="120" height="60" as="geometry" />
        </mxCell>
        <mxCell id="LHb7cjcx7eBN_5A-D2uy-8" value="" style="endArrow=classic;html=1;rounded=0;exitX=0;exitY=0.25;exitDx=0;exitDy=0;entryX=1;entryY=0.25;entryDx=0;entryDy=0;" parent="1" source="LHb7cjcx7eBN_5A-D2uy-7" target="LHb7cjcx7eBN_5A-D2uy-2" edge="1">
          <mxGeometry width="50" height="50" relative="1" as="geometry">
            <mxPoint x="400" y="440" as="sourcePoint" />
            <mxPoint x="450" y="390" as="targetPoint" />
          </mxGeometry>
        </mxCell>
        <mxCell id="LHb7cjcx7eBN_5A-D2uy-9" value="data" style="edgeLabel;html=1;align=center;verticalAlign=middle;resizable=0;points=[];" parent="LHb7cjcx7eBN_5A-D2uy-8" vertex="1" connectable="0">
          <mxGeometry x="-0.0667" y="-3" relative="1" as="geometry">
            <mxPoint as="offset" />
          </mxGeometry>
        </mxCell>
        <mxCell id="LHb7cjcx7eBN_5A-D2uy-10" value="" style="endArrow=classic;html=1;rounded=0;exitX=0;exitY=0.5;exitDx=0;exitDy=0;entryX=1;entryY=0.5;entryDx=0;entryDy=0;" parent="1" source="LHb7cjcx7eBN_5A-D2uy-7" target="LHb7cjcx7eBN_5A-D2uy-2" edge="1">
          <mxGeometry width="50" height="50" relative="1" as="geometry">
            <mxPoint x="280" y="340" as="sourcePoint" />
            <mxPoint x="260" y="298" as="targetPoint" />
          </mxGeometry>
        </mxCell>
        <mxCell id="LHb7cjcx7eBN_5A-D2uy-11" value="valid" style="edgeLabel;html=1;align=center;verticalAlign=middle;resizable=0;points=[];" parent="LHb7cjcx7eBN_5A-D2uy-10" vertex="1" connectable="0">
          <mxGeometry x="-0.2333" y="-1" relative="1" as="geometry">
            <mxPoint as="offset" />
          </mxGeometry>
        </mxCell>
        <mxCell id="LHb7cjcx7eBN_5A-D2uy-12" value="" style="endArrow=classic;html=1;rounded=0;exitX=1;exitY=0.75;exitDx=0;exitDy=0;entryX=0;entryY=0.75;entryDx=0;entryDy=0;" parent="1" source="LHb7cjcx7eBN_5A-D2uy-2" target="LHb7cjcx7eBN_5A-D2uy-7" edge="1">
          <mxGeometry width="50" height="50" relative="1" as="geometry">
            <mxPoint x="400" y="440" as="sourcePoint" />
            <mxPoint x="450" y="390" as="targetPoint" />
          </mxGeometry>
        </mxCell>
        <mxCell id="LHb7cjcx7eBN_5A-D2uy-13" value="available" style="edgeLabel;html=1;align=center;verticalAlign=middle;resizable=0;points=[];" parent="LHb7cjcx7eBN_5A-D2uy-12" vertex="1" connectable="0">
          <mxGeometry x="-0.0333" y="-1" relative="1" as="geometry">
            <mxPoint as="offset" />
          </mxGeometry>
        </mxCell>
        <mxCell id="LHb7cjcx7eBN_5A-D2uy-14" value="&lt;div&gt;Table reader&lt;/div&gt;&lt;div&gt;(Arbiter)&lt;/div&gt;" style="rounded=1;whiteSpace=wrap;html=1;" parent="1" vertex="1">
          <mxGeometry x="370" y="140" width="120" height="60" as="geometry" />
        </mxCell>
        <mxCell id="LHb7cjcx7eBN_5A-D2uy-15" value="" style="endArrow=classic;html=1;rounded=0;exitX=0.25;exitY=1;exitDx=0;exitDy=0;entryX=0.25;entryY=0;entryDx=0;entryDy=0;" parent="1" source="LHb7cjcx7eBN_5A-D2uy-14" target="LHb7cjcx7eBN_5A-D2uy-7" edge="1">
          <mxGeometry width="50" height="50" relative="1" as="geometry">
            <mxPoint x="400" y="440" as="sourcePoint" />
            <mxPoint x="420" y="240" as="targetPoint" />
          </mxGeometry>
        </mxCell>
        <mxCell id="LHb7cjcx7eBN_5A-D2uy-16" value="dma interface" style="edgeLabel;html=1;align=center;verticalAlign=middle;resizable=0;points=[];" parent="LHb7cjcx7eBN_5A-D2uy-15" vertex="1" connectable="0">
          <mxGeometry x="0.1" y="-1" relative="1" as="geometry">
            <mxPoint as="offset" />
          </mxGeometry>
        </mxCell>
        <mxCell id="LHb7cjcx7eBN_5A-D2uy-17" value="" style="endArrow=classic;html=1;rounded=0;entryX=0.75;entryY=1;entryDx=0;entryDy=0;exitX=0.75;exitY=0;exitDx=0;exitDy=0;" parent="1" source="LHb7cjcx7eBN_5A-D2uy-7" target="LHb7cjcx7eBN_5A-D2uy-14" edge="1">
          <mxGeometry width="50" height="50" relative="1" as="geometry">
            <mxPoint x="400" y="440" as="sourcePoint" />
            <mxPoint x="450" y="390" as="targetPoint" />
          </mxGeometry>
        </mxCell>
        <mxCell id="LHb7cjcx7eBN_5A-D2uy-18" value="&lt;div&gt;irq&lt;/div&gt;" style="edgeLabel;html=1;align=center;verticalAlign=middle;resizable=0;points=[];" parent="LHb7cjcx7eBN_5A-D2uy-17" vertex="1" connectable="0">
          <mxGeometry x="-0.2" y="-1" relative="1" as="geometry">
            <mxPoint as="offset" />
          </mxGeometry>
        </mxCell>
        <mxCell id="LHb7cjcx7eBN_5A-D2uy-20" value="PS" style="rounded=1;whiteSpace=wrap;html=1;" parent="1" vertex="1">
          <mxGeometry x="570" y="140" width="120" height="60" as="geometry" />
        </mxCell>
        <mxCell id="LHb7cjcx7eBN_5A-D2uy-22" value="" style="endArrow=classic;startArrow=classic;html=1;rounded=0;entryX=0;entryY=0.5;entryDx=0;entryDy=0;exitX=1;exitY=0.5;exitDx=0;exitDy=0;" parent="1" source="LHb7cjcx7eBN_5A-D2uy-14" target="LHb7cjcx7eBN_5A-D2uy-20" edge="1">
          <mxGeometry width="50" height="50" relative="1" as="geometry">
            <mxPoint x="400" y="440" as="sourcePoint" />
            <mxPoint x="450" y="390" as="targetPoint" />
          </mxGeometry>
        </mxCell>
        <mxCell id="LHb7cjcx7eBN_5A-D2uy-23" value="AXI" style="edgeLabel;html=1;align=center;verticalAlign=middle;resizable=0;points=[];" parent="LHb7cjcx7eBN_5A-D2uy-22" vertex="1" connectable="0">
          <mxGeometry x="-0.32" relative="1" as="geometry">
            <mxPoint as="offset" />
          </mxGeometry>
        </mxCell>
        <mxCell id="71xoM-tqRyFSgtOG_Ljl-1" value="" style="endArrow=classic;html=1;rounded=0;exitX=1;exitY=0.75;exitDx=0;exitDy=0;entryX=0;entryY=0.75;entryDx=0;entryDy=0;" parent="1" source="LHb7cjcx7eBN_5A-D2uy-14" target="LHb7cjcx7eBN_5A-D2uy-20" edge="1">
          <mxGeometry width="50" height="50" relative="1" as="geometry">
            <mxPoint x="400" y="440" as="sourcePoint" />
            <mxPoint x="450" y="390" as="targetPoint" />
          </mxGeometry>
        </mxCell>
        <mxCell id="71xoM-tqRyFSgtOG_Ljl-2" value="irq" style="edgeLabel;html=1;align=center;verticalAlign=middle;resizable=0;points=[];" parent="71xoM-tqRyFSgtOG_Ljl-1" vertex="1" connectable="0">
          <mxGeometry x="-0.025" y="-1" relative="1" as="geometry">
            <mxPoint as="offset" />
          </mxGeometry>
        </mxCell>
      </root>
    </mxGraphModel>
  </diagram>
</mxfile>
